<?xml version="1.0" encoding="UTF-8"?><svg id="Layer_1" xmlns="http://www.w3.org/2000/svg" viewBox="0 0 366.12989024 176.96278029"><path d="M73.11177136,91.69107637V19.5387h21.47246385v22.67264184h16.67083517v17.20440893h-16.67083517v28.00753827c0,5.20140761,1.86697299,8.53557464,8.53557464,8.53557464,3.60095392,0,5.06788037-.40004653,8.53557464-1.06687993v17.07114929c-1.60045369.80009305-6.40181478,2.80059327-15.07064907,2.80059327-15.33743595,0-23.47296407-8.66883429-23.47296407-23.07264995Z"/><path d="M128.45278437,105.9613648c-6.93538854-6.93512095-10.93638898-16.80436241-10.93638898-28.14053033,0-13.60372261,4.93462073-23.33970442,12.40331544-29.74125161,6.26855513-5.33466726,14.53707531-7.73548159,22.93939031-7.73548159,22.2725569,0,34.00903893,15.33743595,34.00903893,37.07641909,0,2.93412051-.26705447,5.73498137-.40031412,6.53507442h-47.47896672c0,7.86874124,5.06814796,15.2041763,14.40381566,15.2041763,9.20240805,0,11.86974168-4.40131456,12.80309438-8.13552812h19.20490916c-3.20037221,15.33716836-16.67083517,24.27305712-32.275058,24.27305712-10.13576075,0-18.67133539-3.33416703-24.67283606-9.33593529ZM165.66219551,70.35213976c0-8.53557464-4.40077938-13.8702419-12.93635402-13.8702419-8.402315,0-13.47046296,6.66833407-13.73698225,13.8702419h26.67333628Z"/><path d="M201.96260735,103.56081805c-5.86824102-6.66833407-8.66883429-15.47069559-8.66883429-25.73998358,0-10.13602834,2.9343881-18.93838986,8.66883429-25.74025117,5.20140761-6.1350279,13.8702419-11.73648203,27.60722415-11.73648203,18.53861093,0,30.80813154,11.60322239,31.34170531,28.54084444h-19.3381688c-.13379482-6.13476031-4.80162867-10.66933451-12.40331544-10.66933451-5.20140761,0-8.80262911,2.2672871-11.06964863,5.73471378-2.53407398,3.73448115-3.46742668,7.86874124-3.46742668,13.87050949,0,6.13476031.80009305,10.26928798,3.33416703,14.00350155,2.26701951,3.33416703,5.73444619,5.60145414,11.60268721,5.60145414,8.26905535,0,11.86974168-5.73471378,12.40331544-10.26928798h19.20544433c-.80062823,17.33793617-14.13729637,28.14079792-32.54211247,28.14079792-13.20340849,0-21.47246385-5.73498137-26.67387146-11.73648203Z"/><path d="M289.45318402,16.87140479v31.47496495c4.00100044-4.93462073,10.40281522-8.00226847,18.00503717-8.00226847,17.60472305,0,25.60672393,10.80286175,25.60672393,26.8071311v46.27882714h-21.47246385v-44.27832692c0-6.8018613-3.60068633-10.13602834-9.73598181-10.13602834-8.66883429,0-12.40331544,7.73548159-12.40331544,16.93788964v37.47646561h-21.47192867V16.87140479h21.47192867Z"/><path d="M67.65494527,42.20138946h-17.19000053v17.19000053h17.19000053v-17.19000053Z"/><path d="M50.25494566,19.75138011h-17.19000053v17.19000912h17.19000053v-17.19000912Z"/><path d="M121.60494604,140.26138892h9.68000031c3.84999847,0,6.18000031,2.06999969,6.18000031,5.19999695,0,2.18000793-1,3.68000793-3.06999969,4.44999695,2.47000122.54000854,3.84999847,2.38000488,3.84999847,4.80000305,0,3.52999878-2.73000336,5.65000916-7.18000031,5.65000916h-9.44999695v-20.1000061h-.01000214ZM130.28494634,148.10138526c1.34999847,0,2.26999664-.72000122,2.26999664-1.94999695,0-1.11999512-.83999634-1.86999512-2.34999847-1.86999512h-3.76000214v3.80999756h3.8500061l-.01000214.00999451ZM130.76494207,156.35138526c1.53000641,0,2.58000183-.73999023,2.58000183-2.11999512,0-1.30000305-.94999695-2.1000061-2.66999817-2.1000061h-4.25v4.22000122h4.33999634ZM146.8449439,152.74138465l-7.02999878-12.45999146h5.45999908l4.05000305,7.72999573,4.04999542-7.72999573h5.45999908l-7.03999329,12.45999146v7.63999939h-4.94000244v-7.63999939h.01000214-.02000427ZM170.29494085,140.26138892h8.3500061c6,0,10.33999634,4.36999512,10.33999634,10.05999756s-4.33999634,10.05999756-10.33999634,10.05999756h-8.3500061v-20.11999512ZM178.02495184,156.15138831c3.52999878,0,6.02999878-2.38000488,6.02999878-5.83000183s-2.5-5.83000183-6.02999878-5.83000183h-2.81001282v11.65000916h2.81001282v.00999451ZM193.52495184,140.26138892h15.29998779v4.27999878h-10.36999512v3.47000122h9.99000549v4.27999878h-9.99000549v3.79000854h10.6000061v4.27999878h-15.52999878v-20.1000061ZM213.11494817,153.94139686h4.80000305c.37998962,1.75999451,1.63999939,2.95999146,3.87998962,2.95999146,2.01000977,0,3.30000305-.88999939,3.30000305-2.33000183,0-1.02999878-.66000366-1.69000244-2.1499939-1.98999023l-4.19000244-.8400116c-3.33000183-.6599884-5.19000244-2.29998779-5.19000244-5.61999512,0-3.62000275,3.24000549-6.26000214,7.83999634-6.26000214,4.6000061,0,7.72000122,2.45000458,7.91999817,6.45999908h-4.73999023c-.26000977-1.5-1.32000732-2.5799942-3.22000122-2.5799942-1.90000916,0-3.01000977.68999481-3.01000977,2.01000214,0,.94999695.57000732,1.37998962,1.78001404,1.61000061l4.56999207.86000061c3.38999939.62998962,5.19000244,2.55999756,5.19000244,5.72000122,0,4.04998779-3.41999817,6.83999634-8.15000916,6.83999634-4.72999573,0-8.17999268-2.66000366-8.60998535-6.83999634h-.02000427ZM234.35493841,140.26138892h4.94000244v20.1000061h-4.94000244v-20.1000061ZM253.91495123,144.17139258c-3.3500061,0-5.27999878,3.03999329-5.27999878,6.1499939,0,3.38999939,1.75999451,6.30999756,5.22999573,6.30999756,2.69999695,0,4.11000061-1.4099884,4.56999207-3.09999084h-5.30999756v-4.13999939h10.40000916v1.88999939c0,5.61999512-3.65000916,9.47999573-9.65000916,9.47999573-6.72000122,0-10.16999817-4.91000366-10.16999817-10.44999695,0-5.54000854,3.82000732-10.45000458,10.11000061-10.45000458,5.02999878,0,8.47000122,2.58000183,9.44999695,6.9200058h-5c-.61000061-1.49000549-2.03999329-2.61000061-4.33999634-2.61000061h-.00999451ZM267.16495123,140.26138892h4.47999573l9.33000183,12.21000671v-12.21000671h4.67999268v20.1000061h-4.50999451l-9.30000305-12.21000671v12.21000671h-4.67999268v-20.1000061Z"/></svg>