<?xml version="1.0" encoding="UTF-8" standalone="no"?>
<svg
   width="427.54373"
   height="87.45414"
   viewBox="0 0 427.54373 87.45414"
   fill="none"
   version="1.1"
   id="svg5"
   sodipodi:docname="techbd-fusion.svg"
   inkscape:version="1.3.2 (091e20e, 2023-11-25)"
   inkscape:export-filename="techbd-fusion.png"
   inkscape:export-xdpi="96"
   inkscape:export-ydpi="96"
   xmlns:inkscape="http://www.inkscape.org/namespaces/inkscape"
   xmlns:sodipodi="http://sodipodi.sourceforge.net/DTD/sodipodi-0.dtd"
   xmlns="http://www.w3.org/2000/svg"
   xmlns:svg="http://www.w3.org/2000/svg">
  <sodipodi:namedview
     id="namedview5"
     pagecolor="#fffffc"
     bordercolor="#000000"
     borderopacity="0.25"
     inkscape:showpageshadow="2"
     inkscape:pageopacity="0.0"
     inkscape:pagecheckerboard="0"
     inkscape:deskcolor="#d1d1d1"
     inkscape:zoom="1.9404326"
     inkscape:cx="191.19448"
     inkscape:cy="3.0920941"
     inkscape:window-width="1920"
     inkscape:window-height="1027"
     inkscape:window-x="0"
     inkscape:window-y="25"
     inkscape:window-maximized="0"
     inkscape:current-layer="svg5"
     inkscape:export-bgcolor="#ffffffff" />
  <path
     d="m 30.994149,20.3061 h -15.4031 v 15.4031 h 15.4031 z"
     fill="#fe6d18"
     id="path1" />
  <path
     d="M 15.403149,0.192963 H 0 V 15.5961 h 15.403149 z"
     fill="url(#paint0_linear_12_435)"
     id="path2"
     style="fill:url(#paint0_linear_12_435)" />
  <path
     d="M 35.897449,64.6093 V 0 h 19.2263 v 20.3061 h 14.9294 v 15.4031 h -14.9294 v 25.0879 c 0,4.6606 1.6748,7.6464 7.6465,7.6464 3.2283,0 4.5394,-0.3635 7.6465,-0.9585 v 15.2929 c -1.4324,0.7162 -5.7294,2.5121 -13.497,2.5121 -13.7394,0 -21.0223,-7.7677 -21.0223,-20.6587 z"
     fill="#fdfdfb"
     id="path3"
     style="fill:#03464c;fill-opacity:1" />
  <defs
     id="defs5">
    <rect
       x="77.618645"
       y="1.0932204"
       width="177.83051"
       height="85.63559"
       id="rect5" />
    <linearGradient
       id="paint0_linear_12_435"
       x1="-0.00055344601"
       y1="0.0686469"
       x2="36.172401"
       y2="29.103701"
       gradientUnits="userSpaceOnUse"
       gradientTransform="translate(5.49316e-4)">
      <stop
         offset="0.04"
         stop-color="#F7D432"
         id="stop3" />
      <stop
         offset="0.47562"
         stop-color="#FFA11C"
         id="stop4" />
      <stop
         offset="1"
         stop-color="#FF7019"
         id="stop5" />
    </linearGradient>
  </defs>
  <path
     style="-inkscape-font-specification:'Indivisible, Semi-Bold';fill:#fe6d18;stroke-width:3.61188"
     d="M 120.44759,86.067177 H 104.61313 V 38.679376 h -9.130823 v -12.7138 h 9.130823 v -3.81414 q 0,-21.84462054 21.72904,-21.84462054 4.85436,0 8.0906,0.69348004 V 13.251776 q -1.84928,-0.46232 -4.96994,-0.46232 -9.01524,0 -9.01524,9.13082 v 4.0453 h 13.2917 v 12.7138 h -13.2917 z m 22.42265,-23.347161 v -36.75444 h 15.83446 v 34.78958 q 0,13.176121 10.51778,13.176121 5.43226,0 8.43734,-3.4674 3.12066,-3.58298 3.12066,-9.708721 v -34.78958 h 15.71888 v 60.101601 h -15.0254 v -9.13082 q -4.50762,10.51778 -17.22142,10.51778 -10.28662,0 -15.83446,-6.58806 -5.54784,-6.58806 -5.54784,-18.146061 z m 92.34843,24.734121 q -11.558,0 -18.95512,-5.43226 -7.28154,-5.54784 -8.55292,-15.37214 h 14.4475 q 2.08044,9.8243 13.06054,9.8243 5.2011,0 8.20618,-2.08044 3.00508,-2.19602 3.00508,-5.66342 0,-5.316681 -7.97502,-6.588061 l -12.94496,-2.19602 q -8.6685,-1.38696 -12.7138,-5.31668 -4.0453,-4.0453 -4.0453,-11.21126 0,-8.43734 6.81922,-13.63844 6.9348,-5.2011 18.03048,-5.2011 11.09568,0 17.79932,5.2011 6.70364,5.08552 7.5127,14.10076 h -14.4475 q -1.38696,-8.20618 -10.86452,-8.20618 -4.85436,0 -7.74386,1.7337 -2.77392,1.61812 -2.77392,4.73878 0,2.42718 1.50254,3.58298 1.61812,1.1558 5.43226,1.7337 l 13.06054,2.08044 q 17.79932,2.77392 17.79932,17.568161 0,9.2464 -7.28154,14.79424 -7.28154,5.54784 -18.37722,5.54784 z m 53.1668,-69.810321 H 272.31985 V 2.3872555 h 16.06562 z m -0.11558,68.423361 H 272.43543 V 25.965576 h 15.83446 z m 64.956,-7.62828 q -8.6685,9.01524 -22.07578,9.01524 -13.2917,0 -22.19136,-9.01524 -8.6685,-9.2464 -8.6685,-22.422521 0,-13.2917 8.6685,-22.30694 8.78408,-9.13082 22.19136,-9.13082 13.40728,0 22.07578,9.13082 8.78408,8.89966 8.78408,22.30694 0,13.291701 -8.78408,22.422521 z M 315.89355,56.016376 q 0,7.28154 4.16088,12.829381 4.16088,5.54784 11.09568,5.54784 6.9348,0 11.09568,-5.54784 4.16088,-5.547841 4.16088,-12.829381 0,-7.39712 -4.16088,-12.7138 -4.16088,-5.54784 -11.09568,-5.54784 -6.9348,0 -11.09568,5.54784 -4.16088,5.31668 -4.16088,12.7138 z m 73.39321,30.050801 H 373.4523 V 25.965576 h 15.25656 v 9.2464 q 4.50762,-10.63336 17.337,-10.63336 10.28662,0 15.83446,6.58806 5.66342,6.58806 5.66342,18.14606 V 86.067177 H 411.70928 V 51.393176 q 0,-6.12574 -2.77392,-9.59314 -2.65834,-3.58298 -7.97502,-3.58298 -5.43226,0 -8.55292,3.58298 -3.12066,3.4674 -3.12066,9.59314 z"
     id="text5"
     aria-label="fusion" />
</svg>
