<?xml version="1.0" encoding="UTF-8" standalone="no"?>
<!-- Created with Inkscape (http://www.inkscape.org/) -->

<svg
   width="83.00415mm"
   height="23.101624mm"
   viewBox="0 0 83.00415 23.101624"
   version="1.1"
   id="svg1"
   xml:space="preserve"
   sodipodi:docname="techbd-hub.svg"
   inkscape:version="1.3.2 (091e20e, 2023-11-25)"
   inkscape:export-filename="techbd-hub.png"
   inkscape:export-xdpi="96"
   inkscape:export-ydpi="96"
   xmlns:inkscape="http://www.inkscape.org/namespaces/inkscape"
   xmlns:sodipodi="http://sodipodi.sourceforge.net/DTD/sodipodi-0.dtd"
   xmlns="http://www.w3.org/2000/svg"
   xmlns:svg="http://www.w3.org/2000/svg"><sodipodi:namedview
     id="namedview1"
     pagecolor="#ffffff"
     bordercolor="#000000"
     borderopacity="0.25"
     inkscape:showpageshadow="2"
     inkscape:pageopacity="0.0"
     inkscape:pagecheckerboard="0"
     inkscape:deskcolor="#d1d1d1"
     inkscape:document-units="mm"
     inkscape:zoom="1.287787"
     inkscape:cx="156.85824"
     inkscape:cy="43.485452"
     inkscape:window-width="1920"
     inkscape:window-height="1027"
     inkscape:window-x="0"
     inkscape:window-y="25"
     inkscape:window-maximized="1"
     inkscape:current-layer="svg1" /><defs
     id="defs1"><rect
       x="359.87424"
       y="511.22321"
       width="285.88138"
       height="104.26263"
       id="rect1" /><linearGradient
       id="paint0_linear_12_430"
       x1="-0.000583963"
       y1="0.0686469"
       x2="36.172298"
       y2="29.103701"
       gradientUnits="userSpaceOnUse"><stop
         offset="0.04"
         stop-color="#F7D432"
         id="stop3" /><stop
         offset="0.47562"
         stop-color="#FFA11C"
         id="stop4" /><stop
         offset="1"
         stop-color="#FF7019"
         id="stop5" /></linearGradient></defs><g
     id="layer2"
     transform="translate(-65.326994,-138.97973)"><path
       style="-inkscape-font-specification:'Indivisible, Semi-Bold';fill:#fe6d18"
       d="m 377.11233,585.88938 h -11.69067 v -62.29331 h 11.69067 v 24.57599 q 1.36533,-3.584 4.60799,-5.632 3.24267,-2.048 7.76533,-2.048 7.59467,0 11.69067,4.864 4.18133,4.864 4.18133,13.312 v 27.22132 h -11.69066 v -25.68532 q 0,-4.52267 -2.048,-7.08267 -1.96267,-2.56 -5.888,-2.56 -4.01067,0 -6.31466,2.56 -2.304,2.56 -2.304,7.168 z m 38.48535,-17.23733 v -27.13599 h 11.69066 v 25.68533 q 0,9.72799 7.76533,9.72799 4.01066,0 6.22933,-2.56 2.304,-2.64533 2.304,-7.16799 v -25.68533 h 11.60533 v 44.37332 H 444.099 v -6.74133 q -3.328,7.76533 -12.71466,7.76533 -7.59467,0 -11.69066,-4.864 -4.096,-4.864 -4.096,-13.39733 z m 62.12265,17.23733 h -11.34932 v -62.29331 h 11.69066 v 24.91732 q 1.792,-3.66933 5.29066,-5.80266 3.49867,-2.21867 8.27733,-2.21867 8.78933,0 14.50666,6.74133 5.71733,6.57067 5.71733,16.46933 0,9.728 -5.80266,16.55466 -5.80267,6.656 -14.50666,6.656 -4.77867,0 -8.448,-2.13333 -3.584,-2.21867 -5.376,-5.888 z M 489.155,550.22006 q -4.94934,0 -8.02133,3.84 -3.072,3.84 -3.072,9.64266 0,5.80267 3.072,9.64266 3.07199,3.84 8.02133,3.84 4.94933,0 8.02133,-4.01066 3.07199,-4.01067 3.07199,-9.472 0,-5.46133 -3.07199,-9.47199 -3.072,-4.01067 -8.02133,-4.01067 z"
       id="text1"
       transform="matrix(0.36485481,0,0,0.36485481,-38.421123,-52.056816)"
       aria-label="hub" /></g><g
     id="layer1"
     transform="translate(-65.326994,-138.77412)"><g
       style="fill:none"
       id="g1"
       transform="matrix(0.26458333,0,0,0.26458333,65.327147,138.77412)"><path
         d="M 30.9936,20.3061 H 15.5905 v 15.4031 h 15.4031 z"
         fill="#fe6d18"
         id="path1" /><path
         d="M 15.4025,0.192963 H -5.79834e-4 V 15.5961 H 15.4025 Z"
         fill="url(#paint0_linear_12_430)"
         id="path2"
         style="fill:url(#paint0_linear_12_430)" /><path
         d="M 35.8969,64.6093 V 0 H 55.1232 V 20.3061 H 70.0526 V 35.7092 H 55.1232 v 25.0879 c 0,4.6606 1.6748,7.6464 7.6465,7.6464 3.2283,0 4.5394,-0.3635 7.6465,-0.9585 V 82.7779 C 68.9838,83.4941 64.6868,85.29 56.9192,85.29 43.1798,85.29 35.8969,77.5223 35.8969,64.6313 Z"
         fill="#03464c"
         id="path3" /></g></g></svg>
