<?xml version="1.0" encoding="UTF-8" standalone="no"?>
<svg
   id="Layer_1"
   viewBox="0 0 300.00001 233.37467"
   version="1.1"
   sodipodi:docname="techbd-docs.svg"
   width="300"
   height="233.37468"
   inkscape:version="1.3.2 (091e20e, 2023-11-25)"
   inkscape:export-filename="techbd-docs.png"
   inkscape:export-xdpi="96"
   inkscape:export-ydpi="96"
   xmlns:inkscape="http://www.inkscape.org/namespaces/inkscape"
   xmlns:sodipodi="http://sodipodi.sourceforge.net/DTD/sodipodi-0.dtd"
   xmlns="http://www.w3.org/2000/svg"
   xmlns:svg="http://www.w3.org/2000/svg">
  <sodipodi:namedview
     id="namedview9"
     pagecolor="#ffffff"
     bordercolor="#000000"
     borderopacity="0.25"
     inkscape:showpageshadow="2"
     inkscape:pageopacity="0.0"
     inkscape:pagecheckerboard="0"
     inkscape:deskcolor="#d1d1d1"
     inkscape:zoom="1.1034336"
     inkscape:cx="150.43951"
     inkscape:cy="71.594705"
     inkscape:window-width="1920"
     inkscape:window-height="1027"
     inkscape:window-x="1"
     inkscape:window-y="26"
     inkscape:window-maximized="0"
     inkscape:current-layer="layer1" />
  <defs
     id="defs3">
    <style
       id="style1">.cls-1{fill:url(#linear-gradient);}.cls-2{fill:#03464c;}.cls-3{fill:#fe6d18;}</style>
    <linearGradient
       id="linear-gradient"
       x1="32.17157"
       y1="157.22966"
       x2="72.551567"
       y2="124.82964"
       gradientTransform="matrix(1,0,0,-1,0,177.96278)"
       gradientUnits="userSpaceOnUse">
      <stop
         offset=".04"
         stop-color="#f7d432"
         id="stop1" />
      <stop
         offset=".48"
         stop-color="#ffa11c"
         id="stop2" />
      <stop
         offset="1"
         stop-color="#ff7019"
         id="stop3" />
    </linearGradient>
  </defs>
  <path
     style="-inkscape-font-specification:'Indivisible, Semi-Bold';fill:#fe6d18;stroke-width:1.1145"
     d="m 92.461915,162.80722 v 69.42621 h -12.64889 v -7.79856 q -1.99719,4.08949 -6.08668,6.5622 -3.99439,2.37761 -9.320232,2.37761 -9.890858,0 -16.262852,-7.41814 -6.371995,-7.51325 -6.371995,-18.45026 0,-11.03211 6.371995,-18.35515 6.371994,-7.51324 16.167748,-7.51324 5.325846,0 9.320226,2.47271 3.99439,2.37761 5.80137,6.4671 v -27.77048 z m -25.39288,59.72556 q 5.51606,0 8.93981,-4.2797 3.42376,-4.2797 3.42376,-10.7468 0,-6.4671 -3.42376,-10.74679 -3.42375,-4.2797 -8.93981,-4.2797 -5.516054,0 -8.939812,4.46991 -3.423759,4.4699 -3.423759,10.55658 0,6.08669 3.423759,10.55659 3.423758,4.46991 8.939812,4.46991 z m 78.366025,3.42376 q -7.13283,7.41814 -18.16494,7.41814 -10.93701,0 -18.26005,-7.41814 -7.13283,-7.60835 -7.13283,-18.45026 0,-10.937 7.13283,-18.35515 7.22794,-7.51324 18.26005,-7.51324 11.03211,0 18.16494,7.51324 7.22793,7.32304 7.22793,18.35515 0,10.93701 -7.22793,18.45026 z m -30.71873,-18.45026 q 0,5.99158 3.42376,10.55659 3.42376,4.56501 9.13003,4.56501 5.70626,0 9.13002,-4.56501 3.42376,-4.56501 3.42376,-10.55659 0,-6.08668 -3.42376,-10.46148 -3.42376,-4.56501 -9.13002,-4.56501 -5.70627,0 -9.13003,4.56501 -3.42376,4.3748 -3.42376,10.46148 z m 69.61636,-25.86839 q 9.79575,0 16.07265,5.42095 6.27689,5.42095 7.41814,14.17055 H 195.3648 q -2.47271,-8.55939 -10.937,-8.55939 -5.80137,0 -9.03492,4.3748 -3.32866,4.3748 -3.32866,10.46148 0,6.08669 3.32866,10.55659 3.23355,4.3748 9.03492,4.3748 8.36918,0 10.937,-8.6545 h 12.45868 q -1.14125,8.74961 -7.41814,14.17056 -6.2769,5.42095 -16.07265,5.42095 -11.31742,0 -18.26004,-7.51325 -6.94262,-7.51324 -6.94262,-18.35515 0,-10.8419 6.94262,-18.35515 6.94262,-7.51324 18.26004,-7.51324 z m 52.78286,51.73679 q -9.51044,0 -15.59713,-4.46991 -5.99157,-4.56501 -7.03772,-12.64888 h 11.88805 q 1.71188,8.08387 10.7468,8.08387 4.27969,0 6.75241,-1.71188 2.47271,-1.80698 2.47271,-4.66011 0,-4.3748 -6.5622,-5.42095 l -10.65169,-1.80699 q -7.13283,-1.14125 -10.46149,-4.3748 -3.32865,-3.32865 -3.32865,-9.22513 0,-6.94262 5.61116,-11.22232 5.70626,-4.27969 14.83628,-4.27969 9.13003,0 14.64608,4.27969 5.51606,4.1846 6.18179,11.60274 H 244.7239 q -1.14125,-6.75241 -8.93982,-6.75241 -3.99438,0 -6.37199,1.42657 -2.28251,1.33146 -2.28251,3.89928 0,1.99719 1.23636,2.94823 1.33146,0.95105 4.46991,1.42657 l 10.7468,1.71188 q 14.64607,2.2825 14.64607,14.45587 0,7.60835 -5.99157,12.17336 -5.99158,4.56501 -15.1216,4.56501 z"
     id="text9"
     aria-label="docs" />
  <g
     inkscape:groupmode="layer"
     id="layer1"
     inkscape:label="Layer 1"
     transform="translate(-33.064945,-16.871405)">
    <path
       class="cls-3"
       d="m 101.03995,140.26139 h 9.68 c 3.85,0 6.18,2.07 6.18,5.2 0,2.18 -1,3.68 -3.07,4.44999 2.47,0.54001 3.85,2.38001 3.85,4.80001 0,3.52999 -2.73001,5.65001 -7.18,5.65001 h -9.45 v -20.10001 z m 8.68,7.84 c 1.35,0 2.26999,-0.72001 2.26999,-1.95 0,-1.12 -0.83999,-1.87 -2.34999,-1.87 h -3.76001 v 3.81 h 3.85001 z m 0.47999,8.25 c 1.53001,0 2.58001,-0.73999 2.58001,-2.12 0,-1.3 -0.95,-2.10001 -2.67,-2.10001 h -4.25 v 4.22001 z m 16.08001,-3.61001 -7.03,-12.45999 h 5.46 l 4.05,7.73 4.04999,-7.73 h 5.46 l -7.03999,12.45999 v 7.64 h -4.94 v -7.64 h 0.01 z m 23.44999,-12.47999 h 8.35001 c 6,0 10.33999,4.36999 10.33999,10.06 0,5.69 -4.33999,10.05999 -10.33999,10.05999 h -8.35001 z m 7.73001,15.89 c 3.53,0 6.03,-2.38001 6.03,-5.83 0,-3.45 -2.5,-5.83001 -6.03,-5.83001 h -2.81001 v 11.65001 h 2.81001 z m 15.5,-15.89 h 15.29999 v 4.28 h -10.36999 v 3.47 h 9.99 v 4.28 h -9.99 v 3.79001 h 10.6 v 4.28 h -15.53 z m 19.59,13.68001 h 4.8 c 0.37999,1.75999 1.64,2.95999 3.87999,2.95999 2.01001,0 3.30001,-0.89 3.30001,-2.33 0,-1.03 -0.66001,-1.69001 -2.15,-1.98999 l -4.19,-0.84002 c -3.33,-0.65998 -5.19,-2.29998 -5.19,-5.61999 0,-3.62 3.24,-6.26 7.83999,-6.26 4.60001,0 7.72,2.45 7.92,6.46 h -4.73999 c -0.26001,-1.5 -1.32001,-2.58 -3.22,-2.58 -1.90001,0 -3.01001,0.69 -3.01001,2.01 0,0.95 0.57001,1.37999 1.78001,1.61001 l 4.57,0.86 c 3.39,0.62999 5.19,2.55999 5.19,5.72 0,4.04998 -3.42,6.83999 -8.15001,6.83999 -4.73,0 -8.17999,-2.66 -8.60999,-6.83999 z m 21.23999,-13.68001 h 4.94 v 20.10001 h -4.94 z m 19.56001,3.91 c -3.35,0 -5.28,3.04 -5.28,6.15 0,3.39 1.76,6.30999 5.23,6.30999 2.7,0 4.11,-1.40998 4.56999,-3.09999 h -5.31 v -4.14 h 10.40001 v 1.89 c 0,5.62 -3.65001,9.48 -9.65001,9.48 -6.72,0 -10.16999,-4.91 -10.16999,-10.45 0,-5.54001 3.82,-10.45 10.11,-10.45 5.03,0 8.47,2.58 9.44999,6.92 h -5 c -0.61,-1.49 -2.03999,-2.61 -4.33999,-2.61 z m 13.25,-3.91 h 4.48 l 9.33,12.21001 v -12.21001 h 4.67999 v 20.10001 h -4.50999 l -9.3,-12.21001 v 12.21001 h -4.68 z"
       id="path5" />
  </g>
  <g
     inkscape:groupmode="layer"
     id="layer2"
     inkscape:label="Layer 2"
     transform="translate(-33.064945,-16.871405)">
    <path
       class="cls-2"
       d="M 73.111771,91.691076 V 19.5387 H 94.584235 V 42.211342 H 111.25507 V 59.415751 H 94.584235 v 28.007538 c 0,5.201408 1.866973,8.535575 8.535575,8.535575 3.60095,0 5.06788,-0.400047 8.53557,-1.06688 v 17.071146 c -1.60045,0.8001 -6.40181,2.8006 -15.070645,2.8006 -15.337436,0 -23.472964,-8.66884 -23.472964,-23.072654 z"
       id="path6" />
    <path
       class="cls-2"
       d="M 128.45278,105.96136 C 121.5174,99.026244 117.5164,89.157002 117.5164,77.820834 c 0,-13.603722 4.93462,-23.339704 12.40331,-29.741251 6.26856,-5.334667 14.53708,-7.735482 22.93939,-7.735482 22.27256,0 34.00904,15.337436 34.00904,37.076419 0,2.934121 -0.26705,5.734982 -0.40031,6.535075 h -47.47897 c 0,7.868741 5.06815,15.204176 14.40381,15.204176 9.20241,0 11.86975,-4.401314 12.8031,-8.135528 h 19.20491 c -3.20037,15.337167 -16.67084,24.273057 -32.27506,24.273057 -10.13576,0 -18.67133,-3.33417 -24.67284,-9.33594 z M 165.6622,70.35214 c 0,-8.535575 -4.40078,-13.870242 -12.93636,-13.870242 -8.40231,0 -13.47046,6.668334 -13.73698,13.870242 z"
       id="path7" />
    <path
       class="cls-2"
       d="m 201.96261,103.56082 c -5.86824,-6.668336 -8.66884,-15.470698 -8.66884,-25.739986 0,-10.136028 2.93439,-18.938389 8.66884,-25.740251 5.2014,-6.135028 13.87024,-11.736482 27.60722,-11.736482 18.53861,0 30.80813,11.603223 31.34171,28.540845 h -19.33817 c -0.1338,-6.134761 -4.80163,-10.669335 -12.40332,-10.669335 -5.20141,0 -8.80263,2.267287 -11.06965,5.734714 -2.53407,3.734481 -3.46742,7.868741 -3.46742,13.870509 0,6.134761 0.80009,10.269288 3.33416,14.003502 2.26702,3.334167 5.73445,5.601454 11.60269,5.601454 8.26906,0 11.86974,-5.734714 12.40332,-10.269288 h 19.20544 c -0.80063,17.337938 -14.1373,28.140798 -32.54211,28.140798 -13.20341,0 -21.47247,-5.73498 -26.67387,-11.73648 z"
       id="path8" />
    <path
       class="cls-2"
       d="M 289.45318,16.871405 V 48.34637 c 4.001,-4.934621 10.40282,-8.002269 18.00504,-8.002269 17.60472,0 25.60673,10.802862 25.60673,26.807131 V 113.43006 H 311.59248 V 69.151733 c 0,-6.801862 -3.60069,-10.136029 -9.73598,-10.136029 -8.66883,0 -12.40332,7.735482 -12.40332,16.93789 V 113.43006 H 267.98126 V 16.871405 Z"
       id="path9" />
    <path
       class="cls-3"
       d="m 67.654945,42.201389 h -17.19 V 59.39139 h 17.19 z"
       id="path3" />
    <path
       class="cls-1"
       d="M 50.254946,19.75138 H 33.064945 v 17.190009 h 17.190001 z"
       id="path4"
       style="fill:url(#linear-gradient)" />
  </g>
</svg>
