<?xml version="1.0" encoding="UTF-8" standalone="no"?>
<!-- Created with Inkscape (http://www.inkscape.org/) -->

<svg
   width="83.00415mm"
   height="23.101624mm"
   viewBox="0 0 83.00415 23.101624"
   version="1.1"
   id="svg1"
   xml:space="preserve"
   xmlns="http://www.w3.org/2000/svg"
   xmlns:svg="http://www.w3.org/2000/svg"><defs
     id="defs1"><rect
       x="359.87424"
       y="511.22321"
       width="285.88138"
       height="104.26263"
       id="rect1" /><linearGradient
       id="paint0_linear_12_430"
       x1="-0.000583963"
       y1="0.0686469"
       x2="36.172298"
       y2="29.103701"
       gradientUnits="userSpaceOnUse"><stop
         offset="0.04"
         stop-color="#F7D432"
         id="stop3" /><stop
         offset="0.47562"
         stop-color="#FFA11C"
         id="stop4" /><stop
         offset="1"
         stop-color="#FF7019"
         id="stop5" /></linearGradient></defs><g
     id="layer2"
     transform="translate(-65.326994,-138.97973)"><text
       xml:space="preserve"
       transform="matrix(0.36485481,0,0,0.36485481,-38.421123,-52.056816)"
       id="text1"
       style="font-size:85.3334px;line-height:1.25;font-family:'A1 Serif';-inkscape-font-specification:'A1 Serif, Normal';white-space:pre;shape-inside:url(#rect1);fill:#fe6d18;fill-opacity:1"><tspan
         x="359.875"
         y="585.88938"
         id="tspan3"><tspan
           style="font-weight:600;font-size:85.3333px;font-family:Indivisible;-inkscape-font-specification:'Indivisible, Semi-Bold'"
           id="tspan2">hub</tspan></tspan></text></g><g
     id="layer1"
     transform="translate(-65.326994,-138.77412)"><g
       style="fill:none"
       id="g1"
       transform="matrix(0.26458333,0,0,0.26458333,65.327147,138.77412)"><path
         d="M 30.9936,20.3061 H 15.5905 v 15.4031 h 15.4031 z"
         fill="#fe6d18"
         id="path1" /><path
         d="M 15.4025,0.192963 H -5.79834e-4 V 15.5961 H 15.4025 Z"
         fill="url(#paint0_linear_12_430)"
         id="path2"
         style="fill:url(#paint0_linear_12_430)" /><path
         d="M 35.8969,64.6093 V 0 H 55.1232 V 20.3061 H 70.0526 V 35.7092 H 55.1232 v 25.0879 c 0,4.6606 1.6748,7.6464 7.6465,7.6464 3.2283,0 4.5394,-0.3635 7.6465,-0.9585 V 82.7779 C 68.9838,83.4941 64.6868,85.29 56.9192,85.29 43.1798,85.29 35.8969,77.5223 35.8969,64.6313 Z"
         fill="#03464c"
         id="path3" /></g></g></svg>
